<?xml version="1.0" encoding="UTF-8"?>
<svg xmlns="http://www.w3.org/2000/svg" xmlns:xlink="http://www.w3.org/1999/xlink" width="810pt" height="809.999993pt" viewBox="0 0 810 809.999993" version="1.2">
<defs>
<clipPath id="clip1">
  <path d="M 156 208 L 655 208 L 655 704.515625 L 156 704.515625 Z M 156 208 "/>
</clipPath>
<clipPath id="clip2">
  <path d="M 81.632812 144.605469 L 728.863281 144.605469 L 728.863281 435 L 81.632812 435 Z M 81.632812 144.605469 "/>
</clipPath>
</defs>
<g id="surface1">
<g clip-path="url(#clip1)" clip-rule="nonzero">
<path style=" stroke:none;fill-rule:nonzero;fill:rgb(6.269836%,5.879211%,5.099487%);fill-opacity:1;" d="M 633.882812 422.476562 L 405.25 231.597656 L 176.609375 422.476562 L 176.609375 684.34375 L 337.414062 684.34375 L 337.414062 547.589844 C 337.414062 542.007812 341.941406 537.476562 347.523438 537.476562 L 462.964844 537.476562 C 468.550781 537.476562 473.074219 542.007812 473.074219 547.589844 L 473.074219 684.34375 L 633.882812 684.34375 Z M 412.167969 211.078125 L 650.46875 410.019531 L 650.480469 410.011719 C 652.875 412.007812 654.109375 414.878906 654.109375 417.765625 L 654.109375 694.457031 C 654.109375 700.039062 649.582031 704.570312 644 704.570312 L 462.964844 704.570312 C 457.375 704.570312 452.847656 700.039062 452.847656 694.457031 L 452.847656 557.703125 L 357.640625 557.703125 L 357.640625 694.457031 C 357.640625 700.039062 353.105469 704.570312 347.523438 704.570312 L 166.492188 704.570312 C 160.90625 704.570312 156.378906 700.039062 156.378906 694.457031 L 156.378906 417.765625 C 156.378906 414.441406 157.984375 411.484375 160.476562 409.640625 L 398.765625 210.707031 L 398.761719 210.6875 C 402.730469 207.375 408.5 207.621094 412.167969 211.078125 "/>
</g>
<g clip-path="url(#clip2)" clip-rule="nonzero">
<path style=" stroke:none;fill-rule:nonzero;fill:rgb(6.269836%,5.879211%,5.099487%);fill-opacity:1;" d="M 712.175781 432.464844 C 716.386719 436.105469 722.753906 435.648438 726.394531 431.4375 C 730.042969 427.226562 729.585938 420.863281 725.375 417.21875 C 691.765625 388.261719 418.878906 144.988281 405.550781 144.605469 L 405.496094 144.597656 L 404.996094 144.597656 L 404.941406 144.605469 C 388.636719 145.078125 119.816406 387.324219 85.117188 417.21875 C 80.90625 420.863281 80.445312 427.226562 84.089844 431.4375 C 87.738281 435.648438 94.101562 436.105469 98.3125 432.464844 L 405.25 168.011719 L 712.175781 432.464844 "/>
</g>
<path style=" stroke:none;fill-rule:nonzero;fill:rgb(6.269836%,5.879211%,5.099487%);fill-opacity:1;" d="M 183.636719 202.917969 L 255.410156 202.917969 L 255.410156 297.117188 L 251.890625 300.140625 L 190.675781 352.886719 L 174.078125 367.1875 L 174.007812 345.261719 L 173.5625 213.023438 L 173.527344 202.917969 Z M 235.183594 223.136719 L 193.746094 223.136719 L 194.082031 323.335938 L 235.183594 287.929688 L 235.183594 223.136719 "/>
</g>
</svg>
