<svg xmlns="http://www.w3.org/2000/svg" viewBox="0 0 141.4 118.06"><defs><style>.cls-1{fill:#fdc62d;}.cls-2{fill:#201c11;}.cls-3{fill:#1c190f;}.cls-4{fill:#19170e;}.cls-5{fill:#54471f;}.cls-6{fill:#b08c34;}.cls-7{fill:#fac42c;}.cls-8{fill:#f2be2a;}.cls-9{fill:#f2bf2a;}.cls-10{fill:#f1be29;}.cls-11{fill:#efbe29;}.cls-12{fill:#edbc2a;}.cls-13{fill:#efbe2a;}.cls-14{fill:#e0b42b;}.cls-15{fill:#e5b62b;}.cls-16{fill:#bf9b29;}.cls-17{fill:#493e1e;}.cls-18{fill:#433a1c;}.cls-19{fill:#342d19;}.cls-20{fill:#3b331b;}.cls-21{fill:#e7b82b;}.cls-22{fill:#ebba2c;}.cls-23{fill:#c9a22e;}.cls-24{fill:#d9ad2d;}.cls-25{fill:#d5a92c;}.cls-26{fill:#d16d66;}.cls-27{fill:#2b2515;}.cls-28{fill:#5d2d30;}</style></defs><g id="Warstwa_2" data-name="Warstwa 2"><g id="Warstwa_1-2" data-name="Warstwa 1"><path class="cls-1" d="M0,60q3.18-4.36,6.35-8.7Q24.55,26.44,42.72,1.57a3.28,3.28,0,0,1,3-1.57q27.43.09,54.86,0a2.21,2.21,0,0,1,2.06,1q19,26.61,38.17,53.17a2,2,0,0,1,.05,2.8q-20.16,29.77-40.19,59.63A2.36,2.36,0,0,1,98.29,118a17.21,17.21,0,0,0-2,.06q-27.86,0-55.7,0a2.05,2.05,0,0,1-1.93-1Q19.79,89.17.89,61.36C.6,60.93.33,60.49,0,60ZM64,90.55v-.43l.6-1c-.37-.18-.73-.5-1.1-.5a2.23,2.23,0,0,0-1.44.44,2.51,2.51,0,0,0-.8,1.67c.05.46.74.91,1.23,1.24a6,6,0,0,0,1.63.39c-.47.57-.7,1.11-1.08,1.25A1.19,1.19,0,0,1,61.32,93a28,28,0,0,0-1.92-3.14c-1.12-1.67-2.73-1.62-3.78.1-.42.68-.73,1.41-1.17,2.28a13.29,13.29,0,0,0-1-.9,13,13,0,0,0-3.21-2.1c-2.29-.72-4.06.77-4,3.13,0,3.27.07,6.54.08,9.81,0,.72-.16,1.44-.28,2.52l-2.27-2.5c-.81,1.41-.15,2.31.66,3.19s1.41,1.35,2.49.92,1.06-1.36,1.07-2.29c0-2.32.1-4.63,0-6.94,0-1.08.45-1.45,1.37-1.51a13.78,13.78,0,0,0,1.44,0c.41-.07,1-.18,1.15-.46a2.57,2.57,0,0,1,3.22-1.55c1.32,2.73,2.57,3,5,1.07a3.25,3.25,0,0,0,3.77.36,8,8,0,0,1,1.6-.47c1.22-.26,2.34-.45,3.33.76a1.94,1.94,0,0,0,3,.25,1,1,0,0,1,1.45.11,6.82,6.82,0,0,0,1.46,1,2.82,2.82,0,0,0,3.44-.25c.86-.69,1.81-1.26,2.56-1.79,1.22.35,2.36,1,3.4.88s2-1,2.85-1.57c.26,2.36,1.56,3.1,4,2A3.46,3.46,0,0,0,92.18,95c.38-.49.91-1.27.76-1.69a18.51,18.51,0,0,0-2-3.66,2.27,2.27,0,0,0-1.42-.75,2.49,2.49,0,0,0-2.67,1.18c-.75,1.16-1.37,2.41-2.18,3.53s-1.53.35-2.27-.14-.77-1.07-.2-1.76.84-1.25,1.3-1.84a2.12,2.12,0,0,0,.08-2.71l-3.39,4.17a19.61,19.61,0,0,0,0-2.61,1.56,1.56,0,0,0-.7-1.09c-.78-.24-.84.41-.91,1a34.83,34.83,0,0,1-.75,4.57,3.48,3.48,0,0,1-1.51,2.21c-.54.2-1.49-.75-2.24-1.17.89-1.23,1.72-2.2,2.35-3.29a1.9,1.9,0,0,0-.73-2.69,1.92,1.92,0,0,0-2.52,1,15.43,15.43,0,0,0-1,2.53,4.24,4.24,0,0,1-2,2.55,2.08,2.08,0,0,1-1-2.68,4,4,0,0,0,.25-1.76,5.22,5.22,0,0,0-.72-1.46c-.5.37-1.19.65-1.44,1.14a11.36,11.36,0,0,0-.35,2.1,4.33,4.33,0,0,1-.6,1.07Zm18.1-70.71-.25-.41c.45-.87,1-1.72,1.34-2.62a2.76,2.76,0,0,0-.76-3.26c-.75-.74-1.64-1.42-2.63-.79C77.6,14.13,75,15.3,73.53,17.24a152.63,152.63,0,0,0-9.07,13.62,3.86,3.86,0,0,1-3.2,2,68.65,68.65,0,0,0-9,1.52c-3.74,1-6.93,3.21-9.94,5.53a10.4,10.4,0,0,0-4.35,6.38,24.88,24.88,0,0,1-.52,2.57C35,57.23,40.47,66.43,45.49,69.68a38.28,38.28,0,0,0,14.28,6c3.85.68,7.65,1.62,11.59,1.19,2.22-.25,4.42-.58,6.62-1a44.24,44.24,0,0,0,16.56-6c6.82-4.41,8.67-12.31,7.59-18.94a14.1,14.1,0,0,0-5.34-9.05,36.54,36.54,0,0,0-3.36-2.62c-3-1.86-6.1-3.59-9.15-5.38a1.38,1.38,0,0,1-.49-.5,2.57,2.57,0,0,0-2.62-1.28c-3,0-6.07,0-9.1,0-.31,0-.62-.06-1.21-.12.37-.23.46-.31.56-.35,5.31-1.77,10.63-3.53,15.94-5.32A9.47,9.47,0,0,0,92,22.9a3,3,0,0,0,.55-3.23A3.1,3.1,0,0,0,89.7,18a10.88,10.88,0,0,0-5.09,1.05C83.79,19.38,82.92,19.58,82.07,19.84ZM72,106c-1.81-.65-1.81-.65-1.41-2.65a1.3,1.3,0,0,0,0-.7c-.11-.25-.37-.63-.54-.62-2.3.14-4.72-.5-6.81,1-2.5-2-3.86-1.47-4.6,1.62-.12.48-.28,1-.42,1.43l-.34,0a6.9,6.9,0,0,1-.62-1.54c-.21-1.78-.3-3.56-.51-5.33,0-.37-.41-.7-.63-1-.28.37-.71.7-.8,1.1a9.89,9.89,0,0,0,0,2,3.43,3.43,0,0,1-.52.12,3.21,3.21,0,0,0-3.23,2.18,3,3,0,0,0,.48,3.34,3.5,3.5,0,0,0,4,.69c.25-.08.59-.2.79-.1,1.19.56,2.27.67,3.08-.75.64,1.16,1.39,1.78,2.53,1.61s1.46-1.1,1.82-2c.16-.4.39-.78.73-1.45a16.4,16.4,0,0,0,.38,2.1,3.25,3.25,0,0,0,.64.87c.3-.29.79-.54.87-.89.26-1.1.37-2.24.55-3.4l1.21.23-1.11,3.09c.76.29,1.42.55,2.09.79C71.13,108.23,71.89,107.69,72,106Zm15.22-.49a15.8,15.8,0,0,1-.67-2.62c-.07-1.06.12-2.13.14-3.2,0-.51.22-1.33-.64-1.22-.38.05-.87.71-1,1.17a18.71,18.71,0,0,0-.27,2.71,3.37,3.37,0,0,1-1.57,2.86c-.11-1-.19-1.83-.31-2.63-.08-.59.38-1.51-.76-1.52s-.8.9-.93,1.49-.09,1-.2,1.53a7.52,7.52,0,0,1-.48,1.09l-.32,0A5,5,0,0,1,80,104a17.18,17.18,0,0,0,.16-2c0-.39-.47-.74-.72-1.1-.27.19-.7.32-.79.58-.51,1.43-.94,2.89-1.36,4.22.65.38,1.33.83,2,1.2.43.22,1.17.58,1.36.41a2.87,2.87,0,0,1,2.79-.36c.12,0,.29,0,.35,0,1.14-1,2.19-.26,3.32.06a2.46,2.46,0,0,0,1.78-.33,1.55,1.55,0,0,0,.52-2.52ZM68.62,88c.93-.79.59-1.25-.19-1.73l-.72.87Z"/><path class="cls-2" d="M82.07,19.84c.85-.26,1.72-.46,2.54-.79A10.88,10.88,0,0,1,89.7,18a3.1,3.1,0,0,1,2.83,1.67A3,3,0,0,1,92,22.9a9.47,9.47,0,0,1-4.62,3.44c-5.31,1.79-10.63,3.55-15.94,5.32-.1,0-.19.12-.56.35.59.06.9.12,1.21.12,3,0,6.07,0,9.1,0a2.57,2.57,0,0,1,2.62,1.28,1.38,1.38,0,0,0,.49.5c3,1.79,6.14,3.52,9.15,5.38a36.54,36.54,0,0,1,3.36,2.62A14.1,14.1,0,0,1,102.13,51c1.08,6.63-.77,14.53-7.59,18.94a44.24,44.24,0,0,1-16.56,6c-2.2.39-4.4.72-6.62,1-3.94.43-7.74-.51-11.59-1.19a38.28,38.28,0,0,1-14.28-6c-5-3.25-10.51-12.45-8.09-20.77a24.88,24.88,0,0,0,.52-2.57A10.4,10.4,0,0,1,42.27,40c3-2.32,6.2-4.56,9.94-5.53a68.65,68.65,0,0,1,9-1.52,3.86,3.86,0,0,0,3.2-2,152.63,152.63,0,0,1,9.07-13.62c1.51-1.94,4.07-3.11,6.24-4.48,1-.63,1.88.05,2.63.79a2.76,2.76,0,0,1,.76,3.26c-.38.9-.89,1.75-1.34,2.62ZM93.17,64.7c-.38,1-.8,2-1.12,3a3.37,3.37,0,0,0,.1,1.2c.43-.3,1.11-.51,1.25-.91A18.87,18.87,0,0,0,94,65c.7-1.68,1.4-3.35,2.08-5a8.73,8.73,0,0,0,.48-1.58c1-4.58.36-9.11-.49-13.62a2.35,2.35,0,0,0-1.78-2,6.18,6.18,0,0,0-.49,2c.33,2.68.87,5.32,1.17,8A14.74,14.74,0,0,1,94,60.77,18.09,18.09,0,0,0,93.17,64.7ZM80.93,15.86l-.33-1.41-.59.19.5,1.21c-.3.15-.76.49-.86.41a5.9,5.9,0,0,1-.85-1.16,10.48,10.48,0,0,0-4.19,3.51,10.68,10.68,0,0,0-.85,1.88v0c-.29.19-.69.3-.87.57-1.3,1.84-2.56,3.7-3.81,5.58a5.2,5.2,0,0,0-.4,1.15l.25.18A19,19,0,0,0,70.7,26.8c.68-.56,1.66-.92,1.22-2.23-.16-.48.37-1.06,1.1-.59.27.17.52.36,1,.7,2-1.95,4.06-3.88,6.06-5.86A3.1,3.1,0,0,0,80.93,15.86Zm.28,6.43c-1.69.9-3.62,1.45-4.79,3.14l-.2.11L69.88,30a4.35,4.35,0,0,0,2.11-.1c3-1,6-2,9.06-3a3.67,3.67,0,0,0,.83-.56l.3,0a20.77,20.77,0,0,0,2.52-.69,1.16,1.16,0,0,0,.52-.94c0-.53-.49-1.2.31-1.36.31-.06.76.56,1.14.88a3.79,3.79,0,0,1,.36.51c1.1-.82,2.2-1.53,3.17-2.4.78-.69.71-1.65-.1-2-1.26-.51-2.59-.87-3.79.21l-.32,0c-1.42.07-2.81.21-3.79,1.43ZM79,74c.83-.2,1.65-.45,2.49-.59,1.12-.18,1.57-.89,2-1.85,1.45-3,1.55-6.23,2.2-9.37s1.56-6.07,1.58-9.11c0-4.72-.57-9.44-.95-14.15-.15-1.83-.53-2.17-2.47-2.69.11,2.49.37,5,.3,7.48-.12,4.34-.45,8.67-.68,13a30.24,30.24,0,0,1-1.83,9.67c-1,2.5-1.78,5.08-2.67,7.62l-.15.13.11,0ZM64,57.52l-1.19-.23c.31-3,.63-6.09.93-9.14.4-3.94-1-7.62-1.71-11.39-.24-1.25-2.06-2.24-3.34-2.1a29.6,29.6,0,0,0-3.78.5,35.73,35.73,0,0,0-11.74,5.69A7.69,7.69,0,0,0,40.38,44c-2.2,5.49-3.2,11.13-.34,16.73,1.81,3.54,3.57,7.19,7.92,8.4a8.68,8.68,0,0,1,1.95,1.15,26.37,26.37,0,0,0,3,1.75c2.59,1.14,1.89,1.37,3.6-.82C59.33,67.53,61,63.29,62.34,59l.14-.33a.11.11,0,0,1,0-.15l1,.28a29.73,29.73,0,0,1-5.3,12.11A12.75,12.75,0,0,0,57,73.36c2.86.79,2.83.76,4.42-1.18,2.18-2.65,3.13-5.87,4.29-9a45.13,45.13,0,0,0,2.82-19.32c-.16-2.1-.38-4.19-.59-6.29-.12-1.33-.27-2.66-.41-4l-5.36.69c.61,1.57,1.23,3,1.72,4.43,1.7,5,1.38,10.2.69,15.35C64.44,55.21,64.17,56.36,64,57.52Zm6.59-24.19-.14.29c-1-.26-1.39.21-1.34,1.14s0,2,.09,3c.24,2.85.67,5.7.75,8.55a44,44,0,0,1-2.46,15.94c-1.19,3.37-2,6.87-4.35,9.74a5.44,5.44,0,0,0-.61,1.53c-.25.65,0,1,.67,1.06,1.21.18,2.42.46,3.64.57a1.4,1.4,0,0,0,1.14-.59c1.27-2.57,2.66-5.1,3.15-8s1.27-6,1.59-9c.37-3.63.44-7.29.54-10.95A47.73,47.73,0,0,0,73.05,40a32.06,32.06,0,0,0-1.26-5.51C71.65,34,71,33.72,70.54,33.33Zm17.55,5.51-.47.13c.21,2.41.29,4.83.66,7.21.8,5.2.94,10.31-1.14,15.28a2.61,2.61,0,0,0-.19,1,18.93,18.93,0,0,1-1.51,7.68,15.15,15.15,0,0,0-.51,2.27c1.67-.7,3.1-1.21,4.44-1.9a2.89,2.89,0,0,0,1.2-1.48,49.93,49.93,0,0,0,1.36-4.82c.71-3,1.83-6.1,1.91-9.18.11-4-.63-8.08-1-12.12a3.1,3.1,0,0,0-2.09-2.78C89.83,39.79,89,39.28,88.09,38.84ZM73.2,33.59c2.71,14.28,2,28.16-3.76,41.63a19.5,19.5,0,0,0,2,0,1.23,1.23,0,0,0,.89-.46,52.85,52.85,0,0,0,3.06-6.57c.73-2.21.91-4.59,1.42-6.88,1.09-4.78,2.26-9.57,2-14.51-.27-4.4-.83-8.77-1.27-13.19Zm5.58.49c.35,3.61.74,7.12,1,10.64a32,32,0,0,1,0,6.41c-.6,4.57-1.44,9.11-2.25,13.65-.51,2.81-1,5.64-2.85,8a8.55,8.55,0,0,0-.75,1.7c2.79.27,3.42-.07,4.42-2.39.35-.8.65-1.62.94-2.44a40.07,40.07,0,0,0,2.91-13.94c0-2.69.37-5.39.61-8.09a31.91,31.91,0,0,0-.4-10.45c-.63-2.6-.58-2.61-3.16-3.1A4.07,4.07,0,0,0,78.78,34.08ZM97.5,45.85a5.34,5.34,0,0,0,0,.61c0,.32.06.64.1,1,.58,4.41,1.24,8.83-.61,13.15-.53,1.23-1,2.51-1.38,3.79-.28.81-.47,1.65-.69,2.48C101.77,62.12,101.58,48.89,97.5,45.85Z"/><path class="cls-3" d="M64,90.55l2.33,2.2a4.33,4.33,0,0,0,.6-1.07,11.36,11.36,0,0,1,.35-2.1c.25-.49.94-.77,1.44-1.14a5.22,5.22,0,0,1,.72,1.46,4,4,0,0,1-.25,1.76,2.08,2.08,0,0,0,1,2.68,4.24,4.24,0,0,0,2-2.55,15.43,15.43,0,0,1,1-2.53,1.92,1.92,0,0,1,2.52-1A1.9,1.9,0,0,1,76.42,91c-.63,1.09-1.46,2.06-2.35,3.29.75.42,1.7,1.37,2.24,1.17a3.48,3.48,0,0,0,1.51-2.21,34.83,34.83,0,0,0,.75-4.57c.07-.6.13-1.25.91-1a1.56,1.56,0,0,1,.7,1.09,19.61,19.61,0,0,1,0,2.61L83.6,87.2a2.12,2.12,0,0,1-.08,2.71c-.46.59-.82,1.26-1.3,1.84s-.58,1.25.2,1.76,1.54,1.15,2.27.14,1.43-2.37,2.18-3.53a2.49,2.49,0,0,1,2.67-1.18,2.27,2.27,0,0,1,1.42.75,18.51,18.51,0,0,1,2,3.66c.15.42-.38,1.2-.76,1.69a3.46,3.46,0,0,1-1.28.85c-2.42,1.14-3.72.4-4-2-.88.52-1.82,1.44-2.85,1.57s-2.18-.53-3.4-.88c-.75.53-1.7,1.1-2.56,1.79a2.82,2.82,0,0,1-3.44.25,6.82,6.82,0,0,1-1.46-1,1,1,0,0,0-1.45-.11,1.94,1.94,0,0,1-3-.25c-1-1.21-2.11-1-3.33-.76a8,8,0,0,0-1.6.47,3.25,3.25,0,0,1-3.77-.36c-2.4,2-3.65,1.66-5-1.07a2.57,2.57,0,0,0-3.22,1.55c-.13.28-.74.39-1.15.46a13.78,13.78,0,0,1-1.44,0c-.92.06-1.4.43-1.37,1.51.06,2.31,0,4.62,0,6.94,0,.93,0,1.88-1.07,2.29s-1.81-.17-2.49-.92-1.47-1.78-.66-3.19l2.27,2.5c.12-1.08.28-1.8.28-2.52,0-3.27-.06-6.54-.08-9.81,0-2.36,1.75-3.85,4-3.13a13,13,0,0,1,3.21,2.1,13.29,13.29,0,0,1,1,.9c.44-.87.75-1.6,1.17-2.28,1.05-1.72,2.66-1.77,3.78-.1A28,28,0,0,1,61.32,93a1.19,1.19,0,0,0,1.69.58c.38-.14.61-.68,1.08-1.25A6,6,0,0,1,62.46,92c-.49-.33-1.18-.78-1.23-1.24a2.51,2.51,0,0,1,.8-1.67,2.23,2.23,0,0,1,1.44-.44c.37,0,.73.32,1.1.5l-.6,1h-.64l0,.19Zm-14.67.1c-1.36,0-1.54.19-1.57,1.85a2,2,0,0,0,2.13,1.93c1.15,0,1.84-.56,1.83-1.53C51.68,91.29,51,90.66,49.3,90.65ZM90.47,91.9l.19-.38c-.56-.41-1.14-1.15-1.68-1.13s-1,.85-1.67,1.51Zm-32.18-.58.18-.36-1.09-.72-.93,1.42.3.19Zm32.05,3.1,0-.74H88.53l.06,1ZM73.52,91.73l.54.32L75.28,90l-.52-.31ZM58.45,93.5l-.09-.4-1.5.38C57.62,94.51,58,93.83,58.45,93.5Z"/><path class="cls-4" d="M72,106c-.12,1.67-.88,2.21-2.39,1.67-.67-.24-1.33-.5-2.09-.79l1.11-3.09-1.21-.23c-.18,1.16-.29,2.3-.55,3.4-.08.35-.57.6-.87.89a3.25,3.25,0,0,1-.64-.87,16.4,16.4,0,0,1-.38-2.1c-.34.67-.57,1-.73,1.45-.36.89-.7,1.83-1.82,2s-1.89-.45-2.53-1.61c-.81,1.42-1.89,1.31-3.08.75-.2-.1-.54,0-.79.1a3.5,3.5,0,0,1-4-.69,3,3,0,0,1-.48-3.34,3.21,3.21,0,0,1,3.23-2.18,3.43,3.43,0,0,0,.52-.12,9.89,9.89,0,0,1,0-2c.09-.4.52-.73.8-1.1.22.35.58.68.63,1,.21,1.77.3,3.55.51,5.33a6.9,6.9,0,0,0,.62,1.54l.34,0c.14-.48.3-1,.42-1.43.74-3.09,2.1-3.58,4.6-1.62,2.09-1.46,4.51-.82,6.81-1,.17,0,.43.37.54.62a1.3,1.3,0,0,1,0,.7C70.2,105.37,70.2,105.37,72,106Zm-17.52-2.75a1.52,1.52,0,1,0,0,3c.91,0,1.27-.57,1.25-1.38S55.42,103.36,54.49,103.27Zm5.62,1.56.23.14,1.49-1-1-.88Zm1.1,1.75.4.42.87-.68-.54-.52Z"/><path class="cls-4" d="M87.23,105.53l2.23-1.42a1.55,1.55,0,0,1-.52,2.52,2.46,2.46,0,0,1-1.78.33c-1.13-.32-2.18-1.07-3.32-.06-.06.06-.23,0-.35,0a2.87,2.87,0,0,0-2.79.36c-.19.17-.93-.19-1.36-.41-.72-.37-1.4-.82-2-1.2.42-1.33.85-2.79,1.36-4.22.09-.26.52-.39.79-.58.25.36.68.71.72,1.1a17.18,17.18,0,0,1-.16,2,5,5,0,0,0,.24,1.18l.32,0A7.52,7.52,0,0,0,81,104.1c.11-.5.09-1,.2-1.53s-.12-1.51.93-1.49.68.93.76,1.52c.12.8.2,1.62.31,2.63a3.37,3.37,0,0,0,1.57-2.86,18.71,18.71,0,0,1,.27-2.71c.11-.46.6-1.12,1-1.17.86-.11.65.71.64,1.22,0,1.07-.21,2.14-.14,3.2A15.8,15.8,0,0,0,87.23,105.53Z"/><path class="cls-5" d="M68.62,88l-.91-.86.72-.87C69.21,86.77,69.55,87.23,68.62,88Z"/><path class="cls-6" d="M64,90.55l-.68-.24,0-.19H64Z"/><path class="cls-7" d="M62.49,58.48a.11.11,0,0,0,0,.15l-.14.33c-1.39,4.33-3,8.57-5.85,12.2-1.71,2.19-1,2-3.6.82a26.37,26.37,0,0,1-3-1.75A8.68,8.68,0,0,0,48,69.08c-4.35-1.21-6.11-4.86-7.92-8.4-2.86-5.6-1.86-11.24.34-16.73a7.69,7.69,0,0,1,2.74-3.1,35.73,35.73,0,0,1,11.74-5.69,29.6,29.6,0,0,1,3.78-.5c1.28-.14,3.1.85,3.34,2.1.73,3.77,2.11,7.45,1.71,11.39-.3,3.05-.62,6.09-.93,9.14ZM47.35,63.29a4.7,4.7,0,0,0,4.87-4.68c0-2.37-2.13-4.86-4.13-4.82a5.32,5.32,0,0,0-5,5.21A4,4,0,0,0,47.35,63.29ZM48.77,49h-.51c-.44.5-1.46.81-.74,1.73.19.25.89.11,1.36.14Z"/><path class="cls-8" d="M70.54,33.33c.43.39,1.11.7,1.25,1.17A32.06,32.06,0,0,1,73.05,40a47.73,47.73,0,0,1,.16,6.55c-.1,3.66-.17,7.32-.54,10.95-.32,3-1.08,6-1.59,9s-1.88,5.42-3.15,8a1.4,1.4,0,0,1-1.14.59c-1.22-.11-2.43-.39-3.64-.57-.66-.1-.92-.41-.67-1.06A5.44,5.44,0,0,1,63.09,72c2.3-2.87,3.16-6.37,4.35-9.74A44,44,0,0,0,69.9,46.29c-.08-2.85-.51-5.7-.75-8.55-.09-1-.05-2-.09-3s.3-1.4,1.34-1.14Z"/><path class="cls-9" d="M88.09,38.84c.89.44,1.74.95,2.66,1.32a3.1,3.1,0,0,1,2.09,2.78c.37,4,1.11,8.09,1,12.12-.08,3.08-1.2,6.13-1.91,9.18a49.93,49.93,0,0,1-1.36,4.82,2.89,2.89,0,0,1-1.2,1.48c-1.34.69-2.77,1.2-4.44,1.9a15.15,15.15,0,0,1,.51-2.27A18.93,18.93,0,0,0,87,62.49a2.61,2.61,0,0,1,.19-1c2.08-5,1.94-10.08,1.14-15.28-.37-2.38-.45-4.8-.66-7.21Z"/><path class="cls-10" d="M73.2,33.59h4.3c.44,4.42,1,8.79,1.27,13.19.31,4.94-.86,9.73-2,14.51-.51,2.29-.69,4.67-1.42,6.88a52.85,52.85,0,0,1-3.06,6.57,1.23,1.23,0,0,1-.89.46,19.5,19.5,0,0,1-2,0C75.19,61.75,75.91,47.87,73.2,33.59Z"/><path class="cls-11" d="M64,57.52c.22-1.16.49-2.31.64-3.48.69-5.15,1-10.31-.69-15.35-.49-1.45-1.11-2.86-1.72-4.43l5.36-.69c.14,1.34.29,2.67.41,4,.21,2.1.43,4.19.59,6.29a45.13,45.13,0,0,1-2.82,19.32c-1.16,3.13-2.11,6.35-4.29,9-1.59,1.94-1.56,2-4.42,1.18a12.75,12.75,0,0,1,1.19-2.49,29.73,29.73,0,0,0,5.3-12.11Z"/><path class="cls-12" d="M78.78,34.08a4.07,4.07,0,0,1,.51,0c2.58.49,2.53.5,3.16,3.1a31.91,31.91,0,0,1,.4,10.45c-.24,2.7-.63,5.4-.61,8.09a40.07,40.07,0,0,1-2.91,13.94c-.29.82-.59,1.64-.94,2.44-1,2.32-1.63,2.66-4.42,2.39a8.55,8.55,0,0,1,.75-1.7c1.81-2.37,2.34-5.2,2.85-8,.81-4.54,1.65-9.08,2.25-13.65a32,32,0,0,0,0-6.41C79.52,41.2,79.13,37.69,78.78,34.08Z"/><path class="cls-13" d="M79.05,74.05c.89-2.54,1.69-5.12,2.67-7.62a30.24,30.24,0,0,0,1.83-9.67c.23-4.33.56-8.66.68-13,.07-2.49-.19-5-.3-7.48,1.94.52,2.32.86,2.47,2.69.38,4.71,1,9.43.95,14.15,0,3-.95,6.09-1.58,9.11s-.75,6.4-2.2,9.37c-.47,1-.92,1.67-2,1.85-.84.14-1.66.39-2.49.59Z"/><path class="cls-14" d="M81.88,26.4a3.67,3.67,0,0,1-.83.56c-3,1-6,2-9.06,3a4.35,4.35,0,0,1-2.11.1l6.34-4.49c0,.28-.06.62.08.81a2.37,2.37,0,0,0,.88.68c.1,0,.53-.29.51-.36a2.47,2.47,0,0,0-.5-1c-.16-.18-.51-.18-.77-.26,1.17-1.69,3.1-2.24,4.79-3.14a5.73,5.73,0,0,0,.48.84c.21.24.48.54.76.58A.75.75,0,0,0,83,22.44c-.18-.21-.54-.26-.83-.37,1-1.22,2.37-1.36,3.79-1.43l.17,1.43c.35-.11.92-.14,1-.36.28-.7-.23-1-.85-1.1,1.2-1.08,2.53-.72,3.79-.21.81.33.88,1.29.1,2-1,.87-2.07,1.58-3.17,2.4a3.79,3.79,0,0,0-.36-.51c-.38-.32-.83-.94-1.14-.88-.8.16-.33.83-.31,1.36a1.16,1.16,0,0,1-.52.94,20.77,20.77,0,0,1-2.52.69c-.08-.34-.07-.75-.27-1a1.06,1.06,0,0,0-.9-.35.94.94,0,0,0-.44.81c0,.23.45.44.73.57S81.69,26.42,81.88,26.4Z"/><path class="cls-14" d="M73.76,20.49a10.68,10.68,0,0,1,.85-1.88A10.48,10.48,0,0,1,78.8,15.1a5.9,5.9,0,0,0,.85,1.16c.1.08.56-.26.86-.41h.42a3.1,3.1,0,0,1-.85,3c-2,2-4,3.91-6.06,5.86-.48-.34-.73-.53-1-.7-.73-.47-1.26.11-1.1.59.44,1.31-.54,1.67-1.22,2.23A19,19,0,0,1,68.94,28l-.25-.18a5.2,5.2,0,0,1,.4-1.15c1.25-1.88,2.51-3.74,3.81-5.58.18-.27.58-.38.87-.57.11.34.14.76.36,1a1.66,1.66,0,0,0,1,.41c.16,0,.53-.45.5-.51a1.89,1.89,0,0,0-.74-.81A3.35,3.35,0,0,0,73.76,20.49Zm4.16-1,.09-.64-1.56-.45-.16,1.09Z"/><path class="cls-15" d="M97.5,45.85c4.08,3,4.27,16.27-2.57,21,.22-.83.41-1.67.69-2.48.42-1.28.85-2.56,1.38-3.79,1.85-4.32,1.19-8.74.61-13.15,0-.32-.08-.64-.1-1A5.34,5.34,0,0,1,97.5,45.85Z"/><path class="cls-14" d="M93.17,64.7A18.09,18.09,0,0,1,94,60.77,14.74,14.74,0,0,0,95,52.7c-.3-2.68-.84-5.32-1.17-8a6.18,6.18,0,0,1,.49-2,2.35,2.35,0,0,1,1.78,2c.85,4.51,1.48,9,.49,13.62A8.73,8.73,0,0,1,96.06,60c-.68,1.69-1.38,3.36-2.08,5Z"/><path class="cls-16" d="M93.17,64.7,94,65a18.87,18.87,0,0,1-.58,3c-.14.4-.82.61-1.25.91a3.37,3.37,0,0,1-.1-1.2C92.37,66.7,92.79,65.71,93.17,64.7Z"/><path class="cls-17" d="M82.2,22.07c.29.11.65.16.83.37a.75.75,0,0,1-.58,1.27c-.28,0-.55-.34-.76-.58a5.73,5.73,0,0,1-.48-.84Z"/><path class="cls-18" d="M73.76,20.49a3.35,3.35,0,0,1,1.15.05,1.89,1.89,0,0,1,.74.81c0,.06-.34.52-.5.51a1.66,1.66,0,0,1-1-.41c-.22-.22-.25-.64-.36-1Z"/><path class="cls-19" d="M76.42,25.43c.26.08.61.08.77.26a2.47,2.47,0,0,1,.5,1c0,.07-.41.41-.51.36a2.37,2.37,0,0,1-.88-.68c-.14-.19-.06-.53-.08-.81Z"/><path class="cls-19" d="M81.88,26.4c-.19,0-.42.11-.58,0s-.69-.34-.73-.57a.94.94,0,0,1,.44-.81,1.06,1.06,0,0,1,.9.35c.2.23.19.64.27,1Z"/><path class="cls-20" d="M86.31,20.61c.62.11,1.13.4.85,1.1-.08.22-.65.25-1,.36L86,20.64Z"/><path class="cls-20" d="M64,57.52l-.45,1.24-1-.28.27-1.19Z"/><path class="cls-16" d="M80.93,15.86h-.42L80,14.64l.59-.19Z"/><path class="cls-20" d="M62.34,59l.14-.33Z"/><path class="cls-13" d="M79,74l0,.17-.11,0,.15-.13Z"/><path class="cls-21" d="M49.3,90.65c1.71,0,2.38.64,2.39,2.25,0,1-.68,1.55-1.83,1.53a2,2,0,0,1-2.13-1.93C47.76,90.84,47.94,90.63,49.3,90.65Z"/><path class="cls-22" d="M90.47,91.9H87.31c.68-.66,1.16-1.49,1.67-1.51s1.12.72,1.68,1.13Z"/><path class="cls-23" d="M58.29,91.32l-1.54.53-.3-.19.93-1.42,1.09.72Z"/><path class="cls-23" d="M90.34,94.42l-1.75.23-.06-1h1.76Z"/><path class="cls-15" d="M73.52,91.73l1.24-2.06.52.31-1.22,2.07Z"/><path class="cls-24" d="M58.45,93.5c-.44.33-.83,1-1.59,0l1.5-.38Z"/><path class="cls-24" d="M54.49,103.27c.93.09,1.21.82,1.23,1.65s-.34,1.39-1.25,1.38a1.52,1.52,0,1,1,0-3Z"/><path class="cls-25" d="M60.11,104.83l.69-1.73,1,.88-1.49,1Z"/><path class="cls-23" d="M61.21,106.58l.73-.78.54.52-.87.68Z"/><path class="cls-26" d="M47.35,63.29A4,4,0,0,1,43.11,59a5.32,5.32,0,0,1,5-5.21c2,0,4.13,2.45,4.13,4.82A4.7,4.7,0,0,1,47.35,63.29Zm.91-5.87L47.62,59l1.17-.21Zm0-.89v-.47l-1-.12,0,.74Zm1.93,3.92,0-.47-1.06-.17a3.51,3.51,0,0,0,0,.61A8.46,8.46,0,0,0,50.23,60.45Z"/><path class="cls-27" d="M48.77,49l.11,1.86c-.47,0-1.17.11-1.36-.14-.72-.92.3-1.23.74-1.73Z"/><path class="cls-20" d="M77.92,19.45H76.29l.16-1.09,1.56.45Z"/><path class="cls-28" d="M48.26,57.42l.53,1.32L47.62,59Z"/><path class="cls-28" d="M48.3,56.53l-1,.15,0-.74,1,.12Z"/><path class="cls-28" d="M50.23,60.45a8.46,8.46,0,0,1-1,0,3.51,3.51,0,0,1,0-.61l1.06.17Z"/></g></g></svg>