<?xml version="1.0" standalone="no"?>
<!DOCTYPE svg PUBLIC "-//W3C//DTD SVG 20010904//EN"
 "http://www.w3.org/TR/2001/REC-SVG-20010904/DTD/svg10.dtd">
<svg version="1.0" xmlns="http://www.w3.org/2000/svg"
 width="1128.000000pt" height="1128.000000pt" viewBox="0 0 1128.000000 1128.000000"
 preserveAspectRatio="xMidYMid meet">
<metadata>
Created by potrace 1.14, written by Peter Selinger 2001-2017
</metadata>
<g transform="translate(0.000000,1128.000000) scale(0.100000,-0.100000)"
fill="#000000" stroke="none">
<path d="M3570 10343 c-46 -13 -101 -47 -133 -82 -20 -22 -37 -43 -37 -46 0
-3 -5 -11 -10 -18 -6 -7 -29 -37 -50 -67 -22 -30 -46 -62 -53 -70 -7 -8 -21
-28 -31 -43 -9 -16 -26 -38 -36 -50 -10 -12 -34 -43 -52 -69 -92 -131 -213
-293 -220 -296 -4 -2 -8 -8 -8 -14 0 -5 -6 -15 -12 -23 -7 -7 -21 -23 -30 -36
-31 -44 -169 -234 -186 -256 -9 -13 -41 -56 -70 -95 -29 -40 -102 -139 -162
-220 -60 -82 -106 -148 -103 -148 4 0 0 -6 -9 -12 -8 -7 -50 -62 -93 -123 -43
-60 -90 -122 -104 -137 -13 -16 -22 -28 -19 -28 4 0 -2 -10 -13 -22 -10 -13
-69 -93 -131 -178 -62 -85 -116 -156 -120 -158 -5 -2 -8 -10 -8 -17 0 -8 -6
-18 -13 -22 -8 -4 -32 -36 -55 -69 -23 -34 -48 -69 -57 -77 -8 -9 -15 -18 -15
-22 0 -8 -123 -169 -132 -173 -5 -2 -8 -8 -8 -13 0 -6 -5 -15 -10 -22 -14 -16
-123 -165 -183 -249 -26 -36 -54 -73 -62 -82 -8 -8 -15 -17 -15 -20 0 -3 -47
-70 -105 -148 -58 -79 -113 -154 -123 -167 -9 -13 -23 -30 -30 -37 -6 -7 -12
-15 -12 -19 0 -5 -55 -79 -90 -122 -6 -7 -10 -15 -10 -18 0 -3 -7 -13 -16 -22
-16 -19 -58 -75 -84 -113 -15 -22 -89 -122 -144 -196 -17 -23 -38 -52 -46 -64
-8 -12 -21 -29 -28 -36 -7 -8 -10 -14 -6 -14 4 0 1 -6 -7 -12 -9 -7 -33 -38
-55 -68 -21 -30 -42 -59 -47 -65 -4 -5 -29 -39 -55 -75 -26 -36 -50 -66 -54
-68 -5 -2 -8 -9 -8 -15 0 -7 -14 -27 -30 -46 -17 -18 -30 -37 -30 -40 0 -3
-10 -18 -22 -32 -13 -14 -27 -32 -33 -41 -11 -18 -169 -235 -188 -258 -7 -8
-20 -27 -29 -41 -9 -14 -23 -32 -30 -40 -7 -8 -21 -26 -30 -40 -15 -24 -15
-29 -2 -48 8 -11 13 -21 10 -21 -3 0 6 -12 19 -26 14 -15 25 -31 25 -36 0 -5
18 -33 40 -62 22 -29 40 -58 40 -64 0 -5 4 -12 8 -14 12 -4 72 -95 72 -107 0
-6 4 -11 10 -11 5 0 17 -15 26 -32 9 -18 20 -35 23 -38 3 -3 26 -34 50 -70 24
-36 109 -162 189 -280 80 -118 148 -217 151 -220 3 -3 12 -17 20 -32 8 -15 22
-37 33 -47 10 -11 18 -25 18 -31 0 -5 4 -10 9 -10 5 0 11 -8 14 -17 4 -10 39
-65 79 -123 41 -58 116 -168 168 -245 52 -77 100 -146 107 -153 7 -7 13 -17
13 -22 0 -5 6 -15 12 -22 24 -25 58 -77 58 -88 0 -5 5 -10 10 -10 6 0 10 -7
10 -15 0 -8 5 -15 10 -15 6 0 10 -6 10 -14 0 -8 4 -16 8 -18 4 -1 46 -59 92
-128 46 -69 103 -152 127 -185 24 -33 47 -69 52 -80 5 -12 16 -27 25 -34 9 -7
16 -19 16 -25 0 -6 10 -23 23 -37 24 -27 43 -56 54 -79 4 -8 9 -17 13 -20 3
-3 48 -68 99 -145 52 -77 103 -150 114 -163 11 -12 17 -22 13 -22 -4 0 -2 -6
4 -13 25 -28 100 -137 100 -144 0 -5 11 -20 25 -35 14 -15 25 -30 25 -33 0 -3
24 -41 53 -83 30 -42 105 -153 168 -247 63 -93 118 -174 122 -180 27 -35 107
-158 107 -165 0 -5 3 -10 8 -12 4 -1 20 -23 37 -48 16 -25 32 -47 35 -50 3 -3
10 -13 15 -22 6 -10 64 -97 130 -193 66 -97 127 -186 135 -200 49 -79 246
-363 264 -381 12 -11 37 -26 56 -32 41 -15 4669 -15 4735 -1 52 12 91 48 145
134 25 39 47 72 50 75 3 3 68 100 145 215 77 116 142 212 146 215 3 3 8 10 10
15 8 21 273 410 281 413 4 2 8 7 8 12 0 8 78 130 89 140 3 3 12 17 20 32 8 16
18 28 23 28 4 0 8 7 8 15 0 8 4 15 9 15 5 0 11 8 15 17 6 19 27 55 37 63 12
10 119 172 119 181 0 5 5 9 10 9 6 0 10 6 10 14 0 8 3 16 7 18 5 2 35 44 68
93 32 50 63 92 67 93 4 2 8 10 8 18 0 8 5 14 10 14 6 0 10 6 10 13 0 7 8 22
18 33 17 20 22 27 62 89 10 17 23 35 28 41 5 5 15 21 22 34 7 13 21 33 31 44
11 11 19 25 19 32 0 7 3 14 8 16 7 3 214 307 277 407 17 26 36 54 43 62 7 7
40 57 75 109 34 52 65 100 70 105 17 22 57 82 83 125 15 25 30 47 33 50 4 3
42 59 86 125 43 66 83 122 87 123 4 2 8 9 8 16 0 7 9 21 20 31 11 10 20 22 20
26 0 10 112 173 122 177 4 2 8 8 8 13 0 4 28 49 63 99 34 50 66 100 72 111 5
10 13 19 17 19 5 0 8 6 8 14 0 8 3 16 8 18 11 5 52 66 52 78 0 5 4 10 9 10 5
0 12 8 15 18 3 9 19 33 36 52 16 19 27 36 25 38 -2 2 1 9 6 16 23 26 99 136
95 136 -3 0 6 12 19 26 14 15 22 30 20 34 -3 5 -1 10 4 12 6 1 39 46 74 98
172 258 232 345 239 348 4 2 8 8 8 13 0 8 90 144 138 207 38 52 53 88 51 127
-2 37 -23 93 -39 105 -3 3 -22 28 -40 55 -38 56 -47 68 -72 96 -10 10 -18 22
-18 27 0 4 -10 19 -23 34 -12 15 -38 50 -57 78 -19 28 -40 57 -45 63 -6 7 -26
35 -45 62 -18 28 -36 52 -40 55 -3 3 -32 43 -65 90 -32 47 -67 93 -77 103 -10
10 -18 22 -18 27 0 6 -7 18 -16 28 -8 9 -45 58 -80 107 -36 50 -71 98 -79 107
-7 9 -19 27 -26 40 -6 13 -15 25 -18 28 -4 3 -18 21 -31 40 -14 19 -28 40 -33
45 -4 6 -48 66 -97 135 -49 69 -93 130 -98 135 -5 6 -17 24 -28 40 -10 17 -21
32 -24 35 -3 3 -17 21 -30 40 -13 19 -30 41 -37 48 -7 7 -13 17 -13 21 0 5
-13 24 -30 42 -16 19 -30 40 -30 47 0 6 -3 12 -7 12 -5 0 -19 17 -33 38 -14
20 -31 43 -37 50 -7 7 -13 17 -13 21 0 5 -10 20 -22 34 -13 14 -41 51 -63 83
-22 31 -44 62 -50 68 -5 7 -14 19 -20 28 -16 25 -98 142 -108 153 -4 6 -42 57
-83 115 -40 58 -77 110 -82 115 -4 6 -25 35 -47 65 -21 30 -62 86 -89 124 -28
38 -50 73 -49 78 2 4 -1 8 -6 8 -4 0 -28 28 -52 63 -24 34 -48 67 -54 74 -5 7
-25 34 -43 60 -18 26 -61 87 -95 135 -34 47 -69 96 -77 108 -8 12 -26 36 -38
53 -13 18 -56 77 -95 132 -39 55 -73 102 -76 105 -3 3 -10 13 -16 22 -11 18
-216 307 -278 391 -21 29 -67 92 -102 140 -36 49 -65 93 -65 98 0 5 -4 9 -10
9 -5 0 -10 7 -10 15 0 8 -3 15 -8 15 -4 0 -18 18 -32 40 -14 22 -28 40 -32 40
-5 0 -8 6 -8 14 0 8 -4 16 -8 18 -4 2 -28 31 -52 66 -26 37 -61 73 -84 87
l-41 23 -2250 0 c-1237 0 -2257 -2 -2265 -5z m2910 -1003 c8 -5 11 -10 5 -10
-5 0 -17 5 -25 10 -8 5 -10 10 -5 10 6 0 17 -5 25 -10z m93 -70 c39 -35 78
-97 76 -122 0 -7 -9 7 -20 32 -17 39 -91 119 -110 120 -4 0 -10 7 -13 16 -7
19 -3 16 67 -46z m577 -530 c0 -5 -2 -10 -4 -10 -3 0 -8 5 -11 10 -3 6 -1 10
4 10 6 0 11 -4 11 -10z m50 -20 c8 -5 11 -10 5 -10 -5 0 -17 5 -25 10 -8 5
-10 10 -5 10 6 0 17 -5 25 -10z m-426 -18 c3 -5 -1 -9 -9 -9 -8 0 -12 4 -9 9
3 4 7 8 9 8 2 0 6 -4 9 -8z m103 2 c-3 -3 -12 -4 -19 -1 -8 3 -5 6 6 6 11 1
17 -2 13 -5z m-147 -14 c0 -5 -4 -10 -10 -10 -5 0 -10 5 -10 10 0 6 5 10 10
10 6 0 10 -4 10 -10z m-723 -86 c-3 -3 -12 -4 -19 -1 -8 3 -5 6 6 6 11 1 17
-2 13 -5z m434 -331 c13 -16 12 -17 -3 -4 -10 7 -18 15 -18 17 0 8 8 3 21 -13z
m-671 -177 c0 -2 -8 -10 -17 -17 -16 -13 -17 -12 -4 4 13 16 21 21 21 13z
m-957 -383 c-7 -2 -19 -2 -25 0 -7 3 -2 5 12 5 14 0 19 -2 13 -5z m-80 -10
c-7 -2 -19 -2 -25 0 -7 3 -2 5 12 5 14 0 19 -2 13 -5z m-88 -13 c-27 -12 -43
-12 -25 0 8 5 22 9 30 9 10 0 8 -3 -5 -9z m-205 -30 c-8 -5 -19 -10 -25 -10
-5 0 -3 5 5 10 8 5 20 10 25 10 6 0 3 -5 -5 -10z m-80 -16 c0 -8 -19 -13 -24
-6 -3 5 1 9 9 9 8 0 15 -2 15 -3z m-173 -40 c-3 -3 -12 -4 -19 -1 -8 3 -5 6 6
6 11 1 17 -2 13 -5z m2516 -159 c-3 -9 -8 -14 -10 -11 -3 3 -2 9 2 15 9 16 15
13 8 -4z m0 -45 c3 -11 1 -18 -4 -14 -5 3 -9 12 -9 20 0 20 7 17 13 -6z m5
-125 c-3 -3 -9 2 -12 12 -6 14 -5 15 5 6 7 -7 10 -15 7 -18z m2 -35 c0 -5 -2
-10 -4 -10 -3 0 -8 5 -11 10 -3 6 -1 10 4 10 6 0 11 -4 11 -10z m4 -60 c-6 -6
-10 -3 -10 10 0 13 4 16 10 10 7 -7 7 -13 0 -20z m-1547 -192 c-3 -8 -6 -5 -6
6 -1 11 2 17 5 13 3 -3 4 -12 1 -19z m1558 -97 c3 -5 2 -12 -3 -15 -5 -3 -9 1
-9 9 0 17 3 19 12 6z m-2 -74 c3 -8 2 -20 -3 -26 -5 -9 -7 -4 -7 13 0 29 2 32
10 13z m-3 -71 c0 -3 -4 -8 -10 -11 -5 -3 -10 -1 -10 4 0 6 5 11 10 11 6 0 10
-2 10 -4z m-3 -41 c0 -8 -4 -12 -9 -9 -5 3 -6 10 -3 15 9 13 12 11 12 -6z
m728 -54 c3 -5 2 -12 -3 -15 -5 -3 -9 1 -9 9 0 17 3 19 12 6z m-738 -133 c-3
-7 -5 -2 -5 12 0 14 2 19 5 13 2 -7 2 -19 0 -25z m-2 -38 c-1 -11 -4 -22 -7
-25 -4 -5 -4 34 1 43 4 8 7 -1 6 -18z m-860 -49 c3 -5 2 -12 -3 -15 -5 -3 -9
1 -9 9 0 17 3 19 12 6z m852 -73 c-3 -8 -6 -5 -6 6 -1 11 2 17 5 13 3 -3 4
-12 1 -19z m-4 -63 c-3 -9 -8 -14 -10 -11 -3 3 -2 9 2 15 9 16 15 13 8 -4z
m-3 -60 c0 -8 -4 -15 -10 -15 -5 0 -7 7 -4 15 4 8 8 15 10 15 2 0 4 -7 4 -15z
m-13 -172 c-3 -10 -5 -4 -5 12 0 17 2 24 5 18 2 -7 2 -21 0 -30z m-1522 -62
c3 -5 2 -12 -3 -15 -5 -3 -9 1 -9 9 0 17 3 19 12 6z m1512 -53 c-3 -8 -6 -5
-6 6 -1 11 2 17 5 13 3 -3 4 -12 1 -19z m0 -50 c-3 -7 -5 -2 -5 12 0 14 2 19
5 13 2 -7 2 -19 0 -25z m0 -40 c-3 -8 -6 -5 -6 6 -1 11 2 17 5 13 3 -3 4 -12
1 -19z m0 -83 c0 -8 -4 -12 -9 -9 -5 3 -6 10 -3 15 9 13 12 11 12 -6z m-3570
-17 c-3 -8 -6 -5 -6 6 -1 11 2 17 5 13 3 -3 4 -12 1 -19z m3560 -40 c-3 -7 -5
-2 -5 12 0 14 2 19 5 13 2 -7 2 -19 0 -25z m-859 -33 c-3 -3 -9 2 -12 12 -6
14 -5 15 5 6 7 -7 10 -15 7 -18z m-788 -5 c0 -5 -7 -7 -15 -4 -8 4 -15 8 -15
10 0 2 7 4 15 4 8 0 15 -4 15 -10z m47 -82 c-3 -7 -5 -2 -5 12 0 14 2 19 5 13
2 -7 2 -19 0 -25z m-1130 -55 c-3 -10 -5 -4 -5 12 0 17 2 24 5 18 2 -7 2 -21
0 -30z m2719 22 c-1 -8 -5 -17 -8 -21 -5 -4 -4 16 1 34 3 9 9 -1 7 -13z m-9
-74 c0 -11 -5 -18 -9 -15 -4 3 -5 11 -1 19 7 21 12 19 10 -4z m-44 -211 c-3
-12 -8 -19 -11 -16 -5 6 5 36 12 36 2 0 2 -9 -1 -20z m-21 -77 c-3 -16 -7 -22
-10 -15 -4 13 4 42 11 42 2 0 2 -12 -1 -27z m-21 -60 c-12 -20 -14 -14 -5 12
4 9 9 14 11 11 3 -2 0 -13 -6 -23z m-3140 0 c13 -16 12 -17 -3 -4 -10 7 -18
15 -18 17 0 8 8 3 21 -13z m3102 -108 c-3 -9 -8 -14 -10 -11 -3 3 -2 9 2 15 9
16 15 13 8 -4z m-2992 -22 c13 -16 12 -17 -3 -4 -17 13 -22 21 -14 21 2 0 10
-8 17 -17z m2976 -25 c-3 -8 -6 -5 -6 6 -1 11 2 17 5 13 3 -3 4 -12 1 -19z
m-2853 -77 c-2 -3 -12 3 -22 13 -16 17 -16 18 5 5 12 -7 20 -15 17 -18z m2829
14 c-3 -9 -8 -14 -10 -11 -3 3 -2 9 2 15 9 16 15 13 8 -4z m-22 -65 c-26 -58
-34 -62 -14 -7 9 26 21 47 25 47 4 0 -1 -18 -11 -40z m-28 -75 c-3 -9 -8 -14
-10 -11 -3 3 -2 9 2 15 9 16 15 13 8 -4z m-28 -85 c3 -5 1 -10 -4 -10 -6 0
-11 5 -11 10 0 6 2 10 4 10 3 0 8 -4 11 -10z m-12 -35 c-3 -9 -8 -14 -10 -11
-3 3 -2 9 2 15 9 16 15 13 8 -4z m-22 -69 c-14 -36 -22 -33 -9 5 6 16 12 28
14 26 3 -2 0 -16 -5 -31z m-878 -71 c-3 -9 -8 -14 -10 -11 -3 3 -2 9 2 15 9
16 15 13 8 -4z m848 -8 c-10 -9 -11 -8 -5 6 3 10 9 15 12 12 3 -3 0 -11 -7
-18z m-8 -32 c-3 -9 -8 -14 -10 -11 -3 3 -2 9 2 15 9 16 15 13 8 -4z m-853 1
c0 -2 -8 -10 -17 -17 -16 -13 -17 -12 -4 4 13 16 21 21 21 13z m-55 -96 c-3
-5 -16 -15 -28 -21 -19 -9 -19 -8 3 10 28 23 34 26 25 11z m-1185 -1524 c0 -2
-12 -11 -27 -20 l-28 -17 24 20 c23 21 31 25 31 17z m2700 -20 c0 -2 -7 -7
-16 -10 -8 -3 -12 -2 -9 4 6 10 25 14 25 6z m-56 -40 c-10 -8 -21 -12 -23 -10
-3 2 4 11 15 18 10 8 21 12 23 10 3 -2 -4 -11 -15 -18z m-2717 -23 c-13 -20
-30 -39 -38 -41 -11 -3 -10 -1 2 9 8 8 23 26 32 42 10 15 20 27 22 27 3 0 -5
-17 -18 -37z m2283 23 c0 -2 -8 -10 -17 -17 -16 -13 -17 -12 -4 4 13 16 21 21
21 13z m-1651 -19 c-2 -1 -13 -9 -24 -17 -19 -14 -19 -14 -6 3 7 9 18 17 24
17 6 0 8 -1 6 -3z m2051 -1 c0 -3 -14 -11 -30 -20 -17 -8 -28 -10 -24 -5 3 6
16 14 28 19 26 11 26 11 26 6z m-470 -30 c0 -2 -8 -10 -17 -17 -16 -13 -17
-12 -4 4 13 16 21 21 21 13z m-620 -9 c0 -2 -12 -14 -27 -28 l-28 -24 24 28
c23 25 31 32 31 24z m575 -27 c-3 -5 -12 -10 -18 -10 -7 0 -6 4 3 10 19 12 23
12 15 0z m-2469 -29 c-9 -10 -20 -38 -25 -62 -7 -34 -9 -37 -10 -16 -1 33 26
97 42 97 5 0 3 -8 -7 -19z m2420 -6 c-8 -8 -18 -15 -22 -15 -3 0 -1 7 6 15 7
8 17 15 22 15 5 0 3 -7 -6 -15z m-2444 -362 c-2 -51 -6 -93 -10 -93 -4 0 -5
42 -2 92 3 51 3 128 0 171 -3 43 -3 81 0 84 8 8 15 -153 12 -254z m-5 -160
c-3 -10 -5 -4 -5 12 0 17 2 24 5 18 2 -7 2 -21 0 -30z m-1 -50 c-10 -10 -19 5
-10 18 6 11 8 11 12 0 2 -7 1 -15 -2 -18z m-211 -51 c-3 -3 -11 0 -18 7 -9 10
-8 11 6 5 10 -3 15 -9 12 -12z m212 -19 c-3 -10 -5 -4 -5 12 0 17 2 24 5 18 2
-7 2 -21 0 -30z m-179 -28 c-3 -3 -9 2 -12 12 -6 14 -5 15 5 6 7 -7 10 -15 7
-18z m182 -20 c0 -14 -3 -25 -7 -25 -5 0 -8 11 -8 25 0 14 3 25 8 25 4 0 7
-11 7 -25z m-10 -50 c0 -8 -4 -15 -10 -15 -5 0 -7 7 -4 15 4 8 8 15 10 15 2 0
4 -7 4 -15z m-20 -40 c0 -2 -10 -9 -22 -15 -22 -11 -22 -10 -4 4 21 17 26 19
26 11z m705 -134 c-3 -2 -16 -6 -28 -8 -15 -2 -18 0 -9 5 14 9 45 12 37 3z
m579 -6 c-4 -8 -11 -15 -16 -15 -6 0 -5 6 2 15 7 8 14 15 16 15 2 0 1 -7 -2
-15z m221 5 c-3 -5 -16 -15 -28 -21 -19 -9 -19 -8 3 10 28 23 34 26 25 11z
m-295 -60 c-8 -5 -19 -10 -25 -10 -5 0 -3 5 5 10 8 5 20 10 25 10 6 0 3 -5 -5
-10z"/>
</g>
</svg>
